<svg width="128" height="128" viewBox="0 0 128 128" fill="none" xmlns="http://www.w3.org/2000/svg">
<g clip-path="url(#clip0_11_221)">
<path d="M64.5677 93.0005H63.4323C56.1598 93.0005 50.1302 87.3133 49.7057 80.0533L45.8753 14.5527C45.6553 10.789 47.0125 7.058 49.5993 4.3155C52.186 1.57275 55.8317 0 59.6017 0H68.3982C72.168 0 75.8137 1.57275 78.4005 4.31525C80.9875 7.05775 82.3447 10.7892 82.125 14.5525L78.2947 80.0533C77.8697 87.3135 71.84 93.0005 64.5677 93.0005ZM64 128C56.4183 128 50.25 121.832 50.25 114.25C50.25 106.669 56.4183 100.5 64 100.5C71.5817 100.5 77.75 106.669 77.75 114.25C77.75 121.832 71.5817 128 64 128ZM37.8535 100.439C36.563 100.439 35.3075 99.7732 34.6105 98.5782C31.5942 93.4062 30 87.5 30 81.4983C30 75.4963 31.5942 69.59 34.6105 64.4183C35.6537 62.6295 37.9495 62.024 39.739 63.0682C41.528 64.1115 42.1325 66.4075 41.0892 68.1967C38.741 72.223 37.5 76.8225 37.5 81.4983C37.5 86.1738 38.741 90.7735 41.0892 94.7998C42.1325 96.5888 41.528 98.885 39.739 99.9285C39.167 100.263 38.5162 100.439 37.8535 100.439ZM24.8862 107.972C23.5957 107.972 22.3402 107.306 21.6432 106.111C17.2972 98.658 15 90.1473 15 81.4983C15 72.8493 17.2972 64.3385 21.6435 56.8857C22.6865 55.0967 24.9827 54.492 26.772 55.5355C28.5612 56.579 29.1657 58.875 28.1222 60.6642C24.444 66.9713 22.5 74.1755 22.5 81.4983C22.5 88.821 24.444 96.0252 28.1222 102.332C29.1655 104.121 28.561 106.418 26.772 107.461C26.1999 107.796 25.549 107.972 24.8862 107.972Z" fill="url(#paint0_linear_11_221)"/>
<path d="M11.9003 115.516C10.6088 115.516 9.3525 114.849 8.65575 113.652C2.99325 103.926 0 92.807 0 81.4983C0 70.19 2.99325 59.071 8.65575 49.3443C9.69775 47.5545 11.9935 46.9478 13.7832 47.9903C15.573 49.0323 16.1792 51.328 15.1375 53.1178C10.141 61.7003 7.5 71.514 7.5 81.4983C7.5 91.4825 10.141 101.296 15.1375 109.879C16.1795 111.668 15.5732 113.964 13.7832 115.006C13.2119 115.34 12.5621 115.516 11.9003 115.516ZM90.1787 100.386C89.5395 100.386 88.8923 100.222 88.2998 99.8785C86.5085 98.839 85.8993 96.544 86.9388 94.7528C89.2685 90.7383 90.5 86.155 90.5 81.4983C90.5 76.8413 89.2685 72.258 86.9388 68.2435C85.8993 66.4523 86.5085 64.1573 88.2998 63.1178C90.0908 62.0785 92.386 62.6873 93.4255 64.4788C96.4183 69.6355 98 75.5208 98 81.4983C98 87.4758 96.4183 93.3608 93.4255 98.5173C92.7298 99.716 91.4717 100.386 90.1787 100.386ZM103.146 107.919C102.506 107.919 101.858 107.755 101.265 107.41C99.4743 106.369 98.8662 104.074 99.9072 102.283C103.566 95.9888 105.5 88.8015 105.5 81.4983C105.5 74.195 103.566 67.0078 99.9072 60.7133C98.8662 58.9228 99.4743 56.6275 101.265 55.5868C103.054 54.5458 105.351 55.1533 106.391 56.9443C110.715 64.382 113 72.8725 113 81.4983C113 90.124 110.715 98.6145 106.391 106.052C105.695 107.25 104.438 107.919 103.146 107.919Z" fill="url(#paint1_linear_11_221)"/>
<path d="M116.132 115.462C115.492 115.462 114.844 115.298 114.252 114.954C112.461 113.914 111.852 111.619 112.892 109.828C117.869 101.259 120.5 91.4627 120.5 81.4982C120.5 71.534 117.869 61.7375 112.892 53.1685C111.852 51.3777 112.461 49.0825 114.252 48.0425C116.042 47.002 118.338 47.6102 119.378 49.402C125.018 59.1135 128 70.2125 128 81.4982C128 92.784 125.018 103.883 119.378 113.595C118.682 114.793 117.424 115.462 116.132 115.462Z" fill="url(#paint2_linear_11_221)"/>
</g>
<defs>
<linearGradient id="paint0_linear_11_221" x1="48.574" y1="0" x2="48.574" y2="128" gradientUnits="userSpaceOnUse">
<stop stop-color="white" stop-opacity="0.24"/>
<stop offset="1" stop-color="white" stop-opacity="0.08"/>
</linearGradient>
<linearGradient id="paint1_linear_11_221" x1="56.5" y1="47.4802" x2="56.5" y2="115.516" gradientUnits="userSpaceOnUse">
<stop stop-color="white" stop-opacity="0.24"/>
<stop offset="1" stop-color="white" stop-opacity="0.08"/>
</linearGradient>
<linearGradient id="paint2_linear_11_221" x1="120.192" y1="47.5343" x2="120.192" y2="115.462" gradientUnits="userSpaceOnUse">
<stop stop-color="white" stop-opacity="0.24"/>
<stop offset="1" stop-color="white" stop-opacity="0.08"/>
</linearGradient>
<clipPath id="clip0_11_221">
<rect width="128" height="128" fill="white"/>
</clipPath>
</defs>
</svg>
